<svg width="28" height="28" viewBox="0 0 28 28" fill="none" xmlns="http://www.w3.org/2000/svg">
<path d="M17.43 27.72H1.42237C0.736368 27.72 0.279968 27.2636 0.279968 26.5776V1.42237C0.279968 0.736368 0.736368 0.279968 1.42237 0.279968H17.43C18.116 0.279968 18.5724 0.736368 18.5724 1.42237V9.42477C18.5724 10.1108 18.116 10.5672 17.43 10.5672C16.744 10.5672 16.2876 10.1108 16.2876 9.42477V2.56477H2.56757V25.4324H16.2876V18.5724C16.2876 17.8864 16.744 17.43 17.43 17.43C18.116 17.43 18.5724 17.8864 18.5724 18.5724V26.5748C18.5724 27.2636 18.116 27.72 17.43 27.72Z" fill="#6B6565"/>
<path d="M26.5776 15.1424H9.42756C8.74156 15.1424 8.28516 14.686 8.28516 14C8.28516 13.314 8.74156 12.8576 9.42756 12.8576H26.5776C27.2636 12.8576 27.72 13.314 27.72 14C27.72 14.686 27.2636 15.1424 26.5776 15.1424Z" fill="#6B6565"/>
<path d="M26.5776 15.1424C26.2332 15.1424 26.0064 15.0276 25.7768 14.798L21.2044 10.2284C20.748 9.77198 20.748 9.08598 21.2044 8.62678C21.6608 8.17038 22.3468 8.17038 22.806 8.62678L27.3784 13.1992C27.8348 13.6556 27.8348 14.3416 27.3784 14.8008C27.1488 15.0304 26.9192 15.1424 26.5776 15.1424Z" fill="#6B6565"/>
<path d="M22.0024 19.7176C21.658 19.7176 21.4312 19.6028 21.2016 19.3732C20.7452 18.9168 20.7452 18.2308 21.2016 17.7716L25.774 13.1992C26.2304 12.7428 26.9164 12.7428 27.3756 13.1992C27.832 13.6556 27.832 14.3416 27.3756 14.8008L22.8032 19.3732C22.5764 19.6028 22.3468 19.7176 22.0024 19.7176Z" fill="#6B6565"/>
</svg>
